<!DOCTYPE svg PUBLIC "-//W3C//DTD SVG 20010904//EN" "http://www.w3.org/TR/2001/REC-SVG-20010904/DTD/svg10.dtd">
<svg version="1.0" xmlns="http://www.w3.org/2000/svg" width="545px" height="108px" viewBox="0 0 5450 1080" preserveAspectRatio="xMidYMid meet">
<g id="layer101" fill="#808080" stroke="none">
 <path d="M0 540 l0 -540 2725 0 2725 0 0 540 0 540 -2725 0 -2725 0 0 -540z m3874 439 c31 -28 56 -60 56 -70 0 -11 -10 -52 -22 -93 -28 -96 -23 -106 47 -106 l55 0 0 105 0 106 98 -3 97 -3 3 -247 2 -248 -95 0 -94 0 -16 30 c-9 17 -23 30 -35 30 -25 0 -35 -17 -19 -36 25 -31 74 -46 172 -55 55 -5 104 -12 109 -17 5 -5 1 -51 -9 -108 l-19 -99 -119 1 c-142 1 -202 21 -261 86 -50 55 -100 166 -114 251 -26 153 2 415 56 518 18 36 27 32 108 -42z m1153 14 c38 -31 71 -59 75 -62 4 -4 -4 -42 -18 -86 -14 -43 -24 -90 -22 -104 3 -24 8 -26 56 -29 l52 -3 0 44 c0 24 3 72 6 106 l7 62 96 -3 96 -3 3 -248 2 -248 -97 3 c-89 3 -98 5 -102 23 -4 25 -19 35 -53 35 -34 0 -35 -10 -5 -37 41 -37 71 -47 175 -53 56 -4 105 -9 107 -12 3 -3 -4 -52 -15 -109 -11 -57 -20 -105 -20 -106 0 -2 -39 -3 -87 -3 -115 0 -202 19 -247 54 -54 41 -111 123 -137 196 -21 59 -23 83 -24 260 0 166 3 203 19 250 20 59 54 130 61 130 3 0 35 -25 72 -57z m-4754 -24 c58 -45 77 -65 72 -78 -4 -9 -16 -51 -27 -93 -24 -89 -18 -108 37 -108 64 0 65 2 65 111 l0 99 105 0 105 0 0 -255 0 -256 -102 3 -103 3 -5 30 c-5 27 -9 30 -45 33 l-40 3 42 -42 41 -42 109 -9 c59 -6 114 -15 121 -20 16 -14 15 -43 -5 -134 l-16 -76 -136 4 c-129 3 -139 5 -190 33 -188 104 -261 432 -165 737 28 90 41 118 52 118 4 0 42 -28 85 -61z m2587 -124 l5 -69 50 -36 c118 -82 164 -139 195 -238 31 -97 30 -187 -1 -247 -44 -86 -54 -89 -263 -93 l-183 -4 -17 89 c-29 145 -35 138 119 140 166 4 175 6 175 42 0 33 -39 94 -63 99 -14 3 -17 -5 -17 -52 l0 -56 -105 0 -105 0 0 243 c0 134 3 247 7 251 4 4 50 5 103 4 l95 -3 5 -70z m724 67 c8 -13 39 -163 40 -192 1 -25 0 -25 -96 -28 l-98 -3 -2 -262 -3 -262 -97 -3 -98 -3 0 381 0 380 174 0 c96 0 177 -4 180 -8z m1164 -94 c12 -57 22 -109 22 -115 0 -9 -21 -13 -72 -13 -40 0 -79 -4 -87 -9 -11 -7 2 -56 68 -252 44 -134 81 -250 81 -257 0 -21 -384 -13 -404 8 -15 17 -47 176 -39 197 4 9 26 13 73 13 38 0 71 4 75 9 3 5 -33 120 -80 255 -47 136 -85 251 -85 256 0 6 80 10 213 10 l214 0 21 -102z m-2443 68 c122 -56 207 -234 207 -431 0 -155 -49 -255 -153 -308 -49 -26 -61 -28 -139 -24 -111 5 -174 32 -239 103 -57 62 -71 107 -71 226 0 142 51 285 132 374 77 85 167 105 263 60z m-1025 -371 l0 -385 -100 0 -100 0 0 270 0 270 -44 0 c-29 0 -52 -7 -70 -21 -23 -18 -26 -28 -26 -78 0 -56 44 -235 89 -365 12 -33 19 -61 17 -63 -5 -6 -69 -8 -146 -5 l-66 2 -28 87 c-47 143 -56 192 -63 323 -7 161 8 221 72 285 24 24 58 48 77 54 18 5 113 10 211 10 l177 1 0 -385z m420 203 c0 -101 3 -220 7 -265 6 -77 8 -83 28 -83 43 0 87 -13 92 -27 3 -8 -2 -56 -12 -107 l-18 -93 -190 -8 c-144 -5 -191 -4 -197 5 -4 7 -15 49 -25 94 -9 44 -19 91 -22 104 -5 21 -3 22 66 22 l71 0 0 270 0 270 100 0 100 0 0 -182z"/>
 <path d="M2181 662 c-34 -34 -71 -129 -71 -183 0 -44 11 -72 43 -106 38 -42 112 -24 149 35 17 28 20 43 15 90 -11 102 -55 192 -95 192 -7 0 -26 -12 -41 -28z"/>
 </g>

</svg>