<!DOCTYPE svg PUBLIC "-//W3C//DTD SVG 20010904//EN" "http://www.w3.org/TR/2001/REC-SVG-20010904/DTD/svg10.dtd">
<svg version="1.0" xmlns="http://www.w3.org/2000/svg" width="229px" height="201px" viewBox="0 0 2290 2010" preserveAspectRatio="xMidYMid meet">
<g id="layer101" fill="#808080" stroke="none">
 <path d="M930 1820 l0 -190 55 0 55 0 0 -155 0 -155 -129 0 -129 0 -69 -122 -68 -123 -3 123 -3 122 -319 0 -320 0 0 -190 0 -190 50 0 50 0 0 -280 0 -280 -50 0 -50 0 0 -190 0 -190 255 0 254 0 60 108 61 107 0 -107 0 -108 325 0 325 0 0 190 0 190 -50 0 -50 0 0 155 0 155 205 0 205 0 0 189 0 190 -52 3 -53 3 -3 38 -3 37 125 0 126 0 0 -40 0 -40 -55 0 -55 0 0 -190 0 -190 335 0 335 0 0 190 0 190 -55 0 -55 0 0 280 0 280 55 0 55 0 0 190 0 190 -335 0 -335 0 0 -190 0 -190 55 0 55 0 0 -40 0 -41 -122 3 -123 3 -3 38 -3 37 55 0 56 0 0 190 0 190 -330 0 -330 0 0 -190z m-377 -915 c-20 -42 -33 -45 -33 -7 0 33 7 42 32 42 17 0 17 -2 1 -35z m193 -522 c-11 -11 -17 4 -9 23 7 18 8 18 11 1 2 -10 1 -21 -2 -24z"/>
 </g>
<g id="layer102" fill="#f0b410" stroke="none">
 <path d="M930 1820 l0 -190 55 0 55 0 0 -155 0 -155 -129 0 -129 0 -69 -122 -68 -123 -3 123 -3 122 -319 0 -320 0 0 -190 0 -190 50 0 50 0 0 -280 0 -280 -50 0 -50 0 0 -190 0 -190 255 0 254 0 60 108 61 107 0 -107 0 -108 325 0 325 0 0 190 0 190 -50 0 -50 0 0 155 0 155 205 0 205 0 0 189 0 190 -52 3 -53 3 -3 38 -3 37 125 0 126 0 0 -40 0 -40 -55 0 -55 0 0 -190 0 -190 335 0 335 0 0 190 0 190 -55 0 -55 0 0 280 0 280 55 0 55 0 0 190 0 190 -335 0 -335 0 0 -190 0 -190 55 0 55 0 0 -40 0 -41 -122 3 -123 3 -3 38 -3 37 55 0 56 0 0 190 0 190 -330 0 -330 0 0 -190z m595 5 l0 -130 -47 -3 -48 -3 0 -95 0 -94 180 0 180 0 0 94 0 95 -52 3 -53 3 0 130 0 130 270 0 270 0 0 -130 0 -130 -52 -3 -53 -3 0 -339 0 -339 53 -3 52 -3 0 -125 0 -125 -270 0 -270 0 0 125 0 125 53 3 52 3 0 100 0 99 -180 0 -180 0 0 -99 0 -100 48 -3 47 -3 0 -125 0 -125 -202 -3 -203 -2 0 -215 0 -214 48 -3 47 -3 0 -125 0 -125 -260 0 -260 0 0 125 0 125 58 3 57 3 0 166 c0 92 -2 164 -4 162 -1 -2 -67 -119 -146 -259 -78 -140 -153 -272 -166 -293 l-25 -37 -207 2 -207 3 0 125 0 125 52 3 53 3 0 339 0 339 -53 3 -52 3 0 125 0 125 265 0 265 0 0 -125 0 -125 -57 -3 -58 -3 0 -182 0 -182 173 310 172 310 143 3 142 3 0 214 0 214 -52 3 -53 3 -3 119 c-1 66 0 126 2 133 4 11 57 13 268 11 l263 -3 0 -130z m-972 -920 c-20 -42 -33 -45 -33 -7 0 33 7 42 32 42 17 0 17 -2 1 -35z m193 -522 c-11 -11 -17 4 -9 23 7 18 8 18 11 1 2 -10 1 -21 -2 -24z"/>
 </g>

</svg>